<?xml version="1.0" encoding="utf-8"?>
<!-- Generator: Adobe Illustrator 15.0.0, SVG Export Plug-In . SVG Version: 6.00 Build 0)  -->
<!DOCTYPE svg PUBLIC "-//W3C//DTD SVG 1.1//EN" "http://www.w3.org/Graphics/SVG/1.1/DTD/svg11.dtd">
<svg version="1.1" id="Layer_1" xmlns="http://www.w3.org/2000/svg" xmlns:xlink="http://www.w3.org/1999/xlink" x="0px" y="0px"
	 width="797px" height="220px" viewBox="0 0 797 220" enable-background="new 0 0 797 220" xml:space="preserve">
<rect y="0.129" fill="#F1C817" width="503.647" height="220"/>
<g>
	<path fill="#F1C817" d="M695.187,175.12v-3l9.667-2.833v-19.333l-12.833-10.167v-56c0-10.667-8.334-17.833-13-17.833
		s-6.167,1.833-6.167,1.833c-0.5-45.333-26.873-45.806-26.873-45.806s-26.373,0.473-26.873,45.806c0,0-1.501-1.833-6.167-1.833
		s-13,7.167-13,17.833v56l-12.833,10.166v19.334l9.667,2.833v3l-17.167,6.334v12.5h49.667c0,0,3.873,4.064,16.706,4.064
		s16.706-4.064,16.706-4.064h49.667v-12.5L695.187,175.12z"/>
	<path fill="#FFFFFE" d="M669.149,132.804v23.441c0,2.209-1.791,4-4,4s-4-1.791-4-4v-32.449c0-0.067,0.016-0.132,0.02-0.198V89.68
		c0-20.055-15.716-21.303-15.188-21.251c0,0-15.188,1.502-15.188,21.252v37.25l-0.017,0.013v29.303c0,2.209-1.791,4-4,4
		s-4-1.791-4-4v-23.414l-27.983,20.6v10.75l36.25,9.75v8.75c0,0,0.25,7.75,7.5,7.75h7.336h0.204h7.336c7.25,0,7.5-7.75,7.5-7.75
		v-8.75l36.25-9.75v-10.75L669.149,132.804z"/>
	
		<ellipse transform="matrix(0.8564 0.5163 -0.5163 0.8564 137.0726 -324.1378)" fill="#F1C817" cx="651.314" cy="84.378" rx="4.375" ry="3.032"/>
	
		<ellipse transform="matrix(-0.8564 0.5163 -0.5163 -0.8564 1232.8793 -174.1033)" fill="#F1C817" cx="640.648" cy="84.378" rx="4.375" ry="3.032"/>
</g>
<g>
	<g>
		<path fill="#333333" d="M66.125,136.419c-2.791,0-5.054-2.268-5.054-5.066v-14.269c0-2.797,2.263-5.066,5.054-5.066
			c2.793,0,5.057,2.27,5.057,5.066v14.269C71.181,134.151,68.917,136.419,66.125,136.419z"/>
	</g>
	<g>
		<g>
			<path fill="#333333" d="M82.393,141.896c-2.792,0-5.054-2.265-5.054-5.065v-25.162c0-2.799,2.262-5.065,5.054-5.065
				c2.793,0,5.057,2.266,5.057,5.065v25.162C87.45,139.631,85.187,141.896,82.393,141.896z"/>
		</g>
	</g>
	<g>
		<g>
			<path fill="#333333" d="M98.666,147.239c-2.792,0-5.055-2.265-5.055-5.065v-35.917c0-2.799,2.263-5.066,5.055-5.066
				c2.792,0,5.054,2.267,5.054,5.066v35.917C103.72,144.975,101.458,147.239,98.666,147.239z"/>
		</g>
	</g>
	<g>
		<g>
			<path fill="#333333" d="M141.318,88.563L70.757,67.409c-3.463-1.041-6.587,1.119-6.587,4.437v35.303
				c0.632-0.126,1.285-0.196,1.955-0.196c0.669,0,1.324,0.07,1.958,0.196V71.846c0-0.238,0-0.793,0.861-0.793
				c0.212,0,0.446,0.036,0.69,0.113l70.564,21.152c1.532,0.459,2.672,2.023,2.672,3.113v45.243c0,0.258,0,0.784-0.862,0.784
				c-0.213,0-0.445-0.03-0.689-0.11l-16.278-4.87v4.086l15.157,4.547c0.608,0.18,1.216,0.276,1.81,0.276
				c2.768,0,4.777-1.983,4.777-4.713V95.431C146.784,92.497,144.383,89.48,141.318,88.563z"/>
		</g>
		<g>
			<path fill="#333333" d="M114.932,152.854c-2.792,0-5.055-2.267-5.055-5.065v-47.143c0-2.798,2.263-5.068,5.055-5.068
				c2.793,0,5.054,2.27,5.054,5.068v47.143C119.986,150.588,117.726,152.854,114.932,152.854z"/>
		</g>
	</g>
	<g>
		<path fill="#333333" d="M194.697,115.724v17.014h-5.274V87.717h12.37c4.814,0,8.542,1.174,11.19,3.517
			c2.648,2.344,3.972,5.651,3.972,9.921c0,4.269-1.47,7.764-4.412,10.485c-2.939,2.724-6.911,4.083-11.913,4.083H194.697z
			 M194.697,92.489v18.46h5.526c3.642,0,6.421-0.83,8.334-2.494c1.917-1.666,2.873-4.012,2.873-7.049
			c0-5.944-3.514-8.917-10.548-8.917H194.697z"/>
		<path fill="#333333" d="M236.625,133.492c-4.753,0-8.546-1.503-11.381-4.507c-2.837-3.003-4.255-6.984-4.255-11.942
			c0-5.402,1.478-9.621,4.427-12.654c2.952-3.034,6.939-4.552,11.961-4.552c4.795,0,8.536,1.475,11.225,4.426
			c2.688,2.949,4.036,7.044,4.036,12.274c0,5.132-1.449,9.236-4.35,12.324C245.389,131.948,241.501,133.492,236.625,133.492z
			 M237.001,104.169c-3.307,0-5.922,1.125-7.849,3.375c-1.927,2.25-2.888,5.353-2.888,9.309c0,3.809,0.974,6.814,2.919,9.009
			c1.947,2.198,4.555,3.297,7.818,3.297c3.33,0,5.886-1.078,7.675-3.235c1.792-2.154,2.686-5.221,2.686-9.198
			c0-4.017-0.895-7.115-2.686-9.293C242.887,105.257,240.331,104.169,237.001,104.169z"/>
		<path fill="#333333" d="M300.502,100.588l-9.64,32.149h-5.336l-6.625-23.011c-0.251-0.877-0.419-1.875-0.501-2.984h-0.125
			c-0.064,0.755-0.284,1.729-0.66,2.92l-7.189,23.076h-5.15l-9.732-32.149h5.4l6.656,24.179c0.209,0.73,0.355,1.691,0.439,2.886
			h0.25c0.064-0.921,0.251-1.905,0.565-2.952l7.409-24.112h4.71l6.655,24.237c0.21,0.774,0.366,1.737,0.47,2.891h0.253
			c0.042-0.818,0.22-1.779,0.534-2.891l6.53-24.237H300.502z"/>
		<path fill="#333333" d="M331.386,117.953h-22.698c0.082,3.577,1.046,6.343,2.888,8.285c1.84,1.947,4.373,2.921,7.596,2.921
			c3.622,0,6.95-1.193,9.986-3.58v4.835c-2.827,2.053-6.563,3.078-11.209,3.078c-4.542,0-8.11-1.46-10.704-4.381
			c-2.597-2.919-3.895-7.023-3.895-12.318c0-5.005,1.418-9.082,4.255-12.233c2.834-3.149,6.356-4.723,10.563-4.723
			c4.207,0,7.462,1.359,9.766,4.079c2.303,2.725,3.453,6.502,3.453,11.338V117.953z M326.111,113.588
			c-0.02-2.971-0.736-5.286-2.149-6.937c-1.414-1.657-3.376-2.482-5.886-2.482c-2.431,0-4.49,0.869-6.185,2.604
			c-1.697,1.738-2.743,4.01-3.141,6.815H326.111z"/>
		<path fill="#333333" d="M355.661,105.802c-0.899-0.69-2.198-1.038-3.893-1.038c-2.198,0-4.035,1.038-5.51,3.108
			c-1.478,2.072-2.214,4.897-2.214,8.481v16.384h-5.15v-32.149h5.15v6.625h0.125c0.731-2.259,1.853-4.022,3.358-5.29
			c1.507-1.265,3.191-1.896,5.056-1.896c1.339,0,2.363,0.146,3.077,0.439V105.802z"/>
		<path fill="#333333" d="M379.552,132.737V87.717h12.81c3.895,0,6.98,0.954,9.263,2.857c2.281,1.905,3.422,4.386,3.422,7.44
			c0,2.553-0.69,4.771-2.072,6.657c-1.381,1.881-3.284,3.22-5.713,4.019v0.124c3.033,0.356,5.461,1.501,7.283,3.439
			c1.82,1.936,2.73,4.451,2.73,7.549c0,3.854-1.38,6.97-4.143,9.356c-2.764,2.386-6.25,3.578-10.456,3.578H379.552z M384.828,92.489
			v14.538h5.4c2.888,0,5.161-0.698,6.814-2.088c1.653-1.391,2.479-3.354,2.479-5.889c0-4.374-2.878-6.561-8.634-6.561H384.828z
			 M384.828,111.768v16.198h7.159c3.098,0,5.5-0.733,7.205-2.197c1.707-1.462,2.559-3.471,2.559-6.026
			c0-5.316-3.622-7.975-10.862-7.975H384.828z"/>
		<path fill="#333333" d="M421.03,132.737h-5.275V87.717h5.275V132.737z"/>
	</g>
</g>
</svg>
